<?xml version="1.0" encoding="UTF-8" standalone="no"?>
<svg
   width="1000"
   height="914.746"
   version="1.1"
   id="svg1"
   sodipodi:docname="ubisoft.svg"
   inkscape:version="1.4.2 (f4327f4, 2025-05-13)"
   xmlns:inkscape="http://www.inkscape.org/namespaces/inkscape"
   xmlns:sodipodi="http://sodipodi.sourceforge.net/DTD/sodipodi-0.dtd"
   xmlns="http://www.w3.org/2000/svg"
   xmlns:svg="http://www.w3.org/2000/svg">
  <defs
     id="defs1" />
  <sodipodi:namedview
     id="namedview1"
     pagecolor="#505050"
     bordercolor="#ffffff"
     borderopacity="1"
     inkscape:showpageshadow="0"
     inkscape:pageopacity="0"
     inkscape:pagecheckerboard="1"
     inkscape:deskcolor="#505050"
     inkscape:zoom="0.44110607"
     inkscape:cx="223.3023"
     inkscape:cy="162.09253"
     inkscape:window-width="1920"
     inkscape:window-height="1009"
     inkscape:window-x="-8"
     inkscape:window-y="-8"
     inkscape:window-maximized="1"
     inkscape:current-layer="g1" />
  <g
     fill="#000"
     fill-opacity="1"
     stroke="none"
     id="g1">
    <path
       d="M 481.516,0 C 274.718,0 185.456,184.072 185.456,184.072 l 26.275,18.81 c 0,0 -33.065,62.879 -32.15,143.53 0,164.64 131.058,319.732 323.986,319.732 175.268,0 320.05,-142.657 320.05,-319.327 C 823.617,116.399 644.935,0 481.517,0 Z m 1.794,56.168 c 161.571,0 286.946,130.2 286.946,281.563 0,160.455 -120.68,272.042 -261.307,272.042 -103.498,0 -196.863,-78.816 -196.863,-186.879 0,-62.414 33.174,-105.928 70.348,-129.119 l 5.44,5.903 c -10.173,7.96 -39.181,54.557 -39.181,100.356 0,85.022 66.674,143.906 150.678,143.906 107.006,0 178.371,-91.267 178.371,-197.238 0,-123.296 -108.833,-227.971 -239.806,-227.971 -72.442,0 -133.926,31.154 -169.256,58.657 l -5.498,-4.977 C 309.403,101.144 389.446,56.168 483.31,56.168 Z m -48.21,117.95 c 83.58,0 165.18,55.293 185.548,133.778 l -7.408,2.807 c -36.571,-48.294 -96.496,-88.317 -167.26,-88.317 -130.212,0 -198.596,118.323 -188.557,217.147 l -7.668,2.808 c 0,0 -14.382,-31.734 -14.382,-69.364 0,-108.97 89.488,-198.86 199.727,-198.86 z m 55.242,136.758 c 39.57,0 71.216,32.073 71.216,70.146 0,31.506 -20.228,50.178 -20.228,50.178 l 23.96,16.754 c 0,0 -23.759,37.301 -72.257,37.301 -46.391,0 -87.42,-37.444 -87.42,-87.797 0,-51.884 44.629,-86.582 84.73,-86.582 z"
       id="path1"
       sodipodi:nodetypes="scccssssssssccssssccscccsccscccsccsscc" />
  </g>
</svg>
