<?xml version="1.0" encoding="UTF-8" standalone="no"?>
<svg
   viewBox="0 -42.627 1000 1000"
   version="1.1"
   id="svg1"
   xmlns="http://www.w3.org/2000/svg"
   xmlns:svg="http://www.w3.org/2000/svg">
  <defs
     id="defs1" />
  <g
     fill="currentColor"
     fill-opacity="1"
     stroke="none"
     id="g1">
    <path
       d="m 469.86586,-42.627 c -310.44039,0 -444.438444,276.32464 -444.438444,276.32464 l 39.443423,28.23714 c 0,0 -49.636415,94.3925 -48.262838,215.46392 0,247.15377 196.741249,479.9743 486.360309,479.9743 263.10828,0 480.45168,-214.1534 480.45168,-479.36632 0,-345.89819 -268.2333,-520.63368 -513.55263,-520.63368 z m 2.69311,84.318105 c 242.54666,0 430.75672,195.453235 430.75672,422.675875 0,240.87135 -181.16204,408.38318 -392.26804,408.38318 -155.36881,0 -295.52619,-118.31676 -295.52619,-280.53845 0,-93.69445 49.80004,-159.01667 105.60479,-193.83046 l 8.1664,8.86145 c -15.27147,11.94937 -58.81761,81.89971 -58.81761,150.65211 0,127.63306 100.08947,216.02837 226.19434,216.02837 160.63493,0 267.76642,-137.00792 267.76642,-296.08914 0,-185.08911 -163.37758,-342.2248 -359.99123,-342.2248 -108.74826,0 -201.04662,46.76766 -254.08321,88.05453 l -8.25347,-7.47136 C 211.4938,109.20804 331.6525,41.691105 472.55897,41.691105 Z M 400.18723,218.75492 c 125.46837,0 247.96441,83.00458 278.54038,200.82445 l -11.12072,4.2138 C 612.70735,351.29534 522.74932,291.21373 416.52004,291.21373 c -195.47125,0 -298.12774,177.62376 -283.05743,325.97607 l -11.51102,4.2153 c 0,0 -21.58993,-47.63835 -21.58993,-104.12763 0,-163.58325 134.33733,-298.52405 299.82557,-298.52405 z m 82.92802,205.29796 c 59.40157,0 106.90781,48.14724 106.90781,105.30155 0,47.29608 -30.3658,75.32606 -30.3658,75.32606 l 35.9682,25.15072 c 0,0 -35.66647,55.9954 -108.47054,55.9954 -69.6411,0 -131.23289,-56.21007 -131.23289,-131.79883 0,-77.88707 66.99602,-129.9749 127.19472,-129.9749 z"
       id="path1"
       style="stroke-width:1.50118" />
  </g>
</svg>
