<?xml version="1.0" encoding="UTF-8" standalone="no"?>
<svg viewBox="0 0 400 100" version="1.1" width="400" height="100" xmlns="http://www.w3.org/2000/svg">
  <text
    style="fill:currentColor;font-weight:bold;font-size:53.3333px;line-height:1;font-family:inter;stroke-width:1.5;stroke-linecap:round;stroke-linejoin:round;stroke-miterlimit:0"
    x="113.26562"
    y="42.927059"><tspan
      x="113.26562"
      y="42.927059">Full Steam</tspan><tspan
      x="113.26562"
      y="96.260361">Ahead</tspan></text>
  <path
    fill="#1a9fff"
    d="m 89.349183,89.125703 a 9.342678,9.342678 0 0 1 -13.20748,0.05735 c -3.66246,-3.631699 -3.64608,-9.505707 -0.0144,-13.168164 a 9.340353,9.340353 0 0 1 13.26484,13.153433 z m 5.55048,-18.942123 a 17.321427,17.321427 0 0 0 -24.46833,0.02253 l -18.62131,3.401431 c -0.28293,-0.362568 -0.61017,-0.687059 -0.89444,-0.968941 a 13.141196,13.141196 0 0 0 -6.00997,-3.376576 L 23.960338,20.736061 A 12.964305,12.964305 0 0 0 22.150932,4.5784214 13.031803,13.031803 0 0 0 3.7592049,4.6576114 13.03413,13.03413 0 0 0 3.8351149,23.049352 13.141196,13.141196 0 0 0 9.8450799,26.42592 L 30.790349,74.9519 a 12.964305,12.964305 0 0 0 1.809409,16.157639 c 4.75987,4.719897 12.3383,4.974307 17.38152,0.777588 l 20.43267,3.075461 a 17.347031,17.347031 0 0 0 24.54864,-0.103513 17.347031,17.347031 0 0 0 -0.10352,-24.548647 z m -4.03321,4.067371 a 11.637616,11.637616 0 0 1 0.0693,16.448052 11.637616,11.637616 0 0 1 -16.44807,0.06937 11.637616,11.637616 0 0 1 -0.0676,-16.446419 11.637616,11.637616 0 0 1 16.4464,-0.07099 z M 19.726676,6.9372704 c 2.603048,2.581189 3.388825,6.2645186 2.431476,9.5108256 l -2.045778,-4.69019 C 18.355578,8.0786704 14.013547,6.4346994 10.29431,8.0731594 6.5304639,9.6673684 4.7661749,13.968763 6.2420459,17.76933 l 1.71848,3.962474 A 8.4163235,8.4163235 0 0 1 6.3339659,20.443406 9.5498273,9.5498273 0 0 1 6.2769159,6.9116864 9.5498273,9.5498273 0 0 1 19.808625,6.8546264 Z M 48.492983,74.999084 a 9.5451723,9.5451723 0 0 1 0.0587,13.530053 9.5474998,9.5474998 0 0 1 -13.53007,0.0554 9.4381061,9.4381061 0 0 1 -2.39216,-9.550493 c 0.65494,1.537729 1.34954,3.11479 2.00777,4.652504 a 7.6854812,7.6854812 0 0 0 9.984,4.006625 7.5784152,7.5784152 0 0 0 3.92763,-9.980369 l -1.67881,-3.919856 c 0.60884,0.361159 1.139,0.801655 1.62821,1.286755 z"
  />
  <path
    fill="#1a9fff"
    d="m 10,12.930634 v 24.138732 a 1.659297,1.659297 29.518122 0 0 2.512998,1.422835 L 32.487002,26.507799 a 1.7583806,1.7583806 90 0 0 0,-3.015598 L 12.512998,11.507799 A 1.659297,1.659297 150.48188 0 0 10,12.930634 Z"
    transform="matrix(1.1894622,0,0,1.1894622,38.515323,4.3436694)"
  />
  <path
    fill="#1a9fff"
    d="m 10,12.930634 v 24.138732 a 1.659297,1.659297 29.518122 0 0 2.512998,1.422835 L 32.487002,26.507799 a 1.7583806,1.7583806 90 0 0 0,-3.015598 L 12.512998,11.507799 A 1.659297,1.659297 150.48188 0 0 10,12.930634 Z"
    transform="matrix(1.1894622,0,0,1.1894622,60.752443,4.0624074)"
  />
</svg>
