<?xml version="1.0" encoding="UTF-8" standalone="no"?>
<svg
   viewBox="0 0 400 100"
   version="1.1"
   id="svg6"
   width="192"
   height="48"
   xml:space="preserve"
   xmlns="http://www.w3.org/2000/svg"
   xmlns:svg="http://www.w3.org/2000/svg"><defs
     id="defs2"><style
       id="style2">.cls-2{fill:#980200}.cls-3{fill:red}</style></defs><g
     id="text1"
     style="font-weight:bold;font-size:53.3333px;line-height:1;font-family:'Motiva Sans';-inkscape-font-specification:'Motiva Sans Bold';fill:#ffffff;stroke-width:1.5;stroke-linecap:round;stroke-linejoin:round;stroke-miterlimit:0"
     aria-label="Full Steam&#10;Ahead"><path
       d="m 140.57227,12.313744 h -15.83999 v 10.239994 h 13.81332 v 6.719996 h -13.81332 v 13.653325 h -7.84 V 5.5937481 h 23.67999 z m 31.04,2.666665 v 27.94665 h -5.12 l -1.38667,-3.786664 q -1.06666,1.333332 -2.18666,2.239998 -1.06667,0.906667 -2.88,1.546666 -1.76,0.64 -3.94667,0.64 -4.58666,0 -7.19999,-2.559999 -2.56,-2.559998 -2.56,-7.306662 V 14.980409 h 7.41333 v 16.95999 q 0,4.959997 4.10666,4.959997 3.73333,0 6.29333,-4.213331 V 14.980409 Z m 14.82666,27.94665 h -7.46667 V 2.8204164 h 7.46667 z m 15.19998,0 h -7.46666 V 2.8204164 h 7.46666 z m 20.47993,-2.826665 2.4,-6.453329 q 5.01333,2.666665 10.29333,2.666665 3.30666,0 5.01333,-1.12 1.70666,-1.119999 1.70666,-3.039998 0,-0.586666 -0.16,-1.066666 -0.16,-0.479999 -0.64,-0.906666 -0.48,-0.426666 -0.90666,-0.693333 -0.37334,-0.32 -1.33334,-0.693333 -0.96,-0.426666 -1.54666,-0.639999 -0.53334,-0.213334 -1.92,-0.693333 -1.38667,-0.48 -2.08,-0.746666 -2.50666,-0.906667 -4.21333,-1.759999 -1.65333,-0.906667 -3.14667,-2.133333 -1.49333,-1.279999 -2.23999,-2.986664 -0.69334,-1.706666 -0.69334,-3.946665 0,-5.119997 3.73333,-7.9999949 3.73334,-2.9333316 9.86666,-2.9333316 3.89334,0 7.14667,1.066666 3.30666,1.0133327 5.38666,2.6133318 l -3.30666,5.8133297 q -1.92,-1.333332 -4.37333,-2.079999 -2.4,-0.799999 -4.69334,-0.799999 -2.61333,0 -4.10666,1.066666 -1.49333,1.066666 -1.49333,2.933331 0,0.693333 0.16,1.226666 0.21333,0.533333 0.74666,1.013333 0.53334,0.426667 1.01334,0.746666 0.48,0.32 1.44,0.746667 1.01333,0.373333 1.65333,0.639999 0.69333,0.213333 2.08,0.693333 1.38666,0.48 2.24,0.8 5.01333,1.759999 7.30666,3.999997 2.34666,2.186666 2.34666,6.239997 0,5.599996 -3.99999,8.746661 -4,3.146665 -10.56,3.146665 -3.30666,0 -6.82666,-0.853333 -3.52,-0.906666 -6.29333,-2.613332 z m 42.34665,-25.119985 h 6.82667 v 6.346663 h -6.82667 v 13.386659 q 0,2.346665 2.13334,2.346665 1.70666,0 3.62666,-0.693333 l 1.81333,5.279997 q -3.30666,2.133332 -7.46666,2.133332 -3.78666,0 -5.70666,-1.813332 -1.92,-1.813333 -1.92,-5.706664 V 21.327072 h -4.21333 v -6.346663 h 4.21333 v -3.253331 l 3.25333,-3.9999978 h 4.26666 z m 32.74673,20.053322 2.93334,4.906663 q -4.58667,3.839998 -11.57333,3.839998 -5.97333,0 -9.81333,-3.786664 -3.84,-3.786665 -3.84,-10.933327 0,-6.666663 3.68,-10.773327 3.73333,-4.159998 9.76,-4.159998 3.14666,0 5.65333,1.12 2.50666,1.119999 4.05333,2.986665 1.54666,1.866665 2.34666,4.159997 0.8,2.293332 0.8,4.853331 0,2.239998 -0.37333,4.106664 h -18.45332 q 1.06666,6.399996 7.30666,6.399996 4.21333,0 7.51999,-2.719998 z M 282.2789,26.553736 h 12.10666 q -0.16,-3.093332 -1.70667,-4.853331 -1.54666,-1.759999 -4.15999,-1.759999 -5.49333,0 -6.24,6.61333 z m 27.51999,-3.893331 -2.88,-4.639998 q 2.18666,-1.866665 5.17333,-2.879998 3.04,-1.013333 6.08,-1.013333 6.07999,0 8.95999,2.613332 2.88,2.613332 2.88,7.786662 v 11.14666 q 0,2.026666 1.49333,2.026666 h 1.33333 l -0.58666,4.85333 q -1.12,1.013333 -3.68,1.013333 -3.68,0 -4.85333,-3.039998 -3.2,3.253331 -8.21333,3.253331 -4.32,0 -7.09333,-2.239999 -2.72,-2.239998 -2.72,-6.613329 0,-4.106664 3.04,-6.13333 3.04,-2.079998 7.94666,-2.079998 3.46667,0 5.86667,0.533333 v -2.133333 q 0,-2.719998 -1.33334,-3.786664 -1.33333,-1.119999 -3.99999,-1.119999 -4.32,0 -7.41333,2.453332 z m 12.85332,12.586659 v -3.413332 q -2.13333,-0.586666 -5.11999,-0.586666 -4.85333,0 -4.85333,3.466665 0,1.866665 1.17333,2.719998 1.22666,0.8 3.04,0.8 4.05333,0 5.75999,-2.986665 z m 21.60001,-16.426657 h 0.21334 q 2.93333,-4.533331 8.31999,-4.533331 5.92,0 8.05333,4.959997 3.30667,-4.959997 9.17333,-4.959997 4.26666,0 6.71999,2.506665 2.45334,2.506666 2.45334,6.93333 v 19.199988 h -7.62667 V 24.793737 q 0,-3.946665 -3.51999,-3.946665 -3.62667,0 -5.76,4.159998 v 17.919989 h -7.62666 V 24.68707 q 0,-1.973332 -0.96,-2.879998 -0.96,-0.96 -2.56,-0.96 -3.68,0 -5.76,4.159998 v 17.919989 h -7.67999 v -27.94665 h 5.86666 z"
       id="path3" /><path
       d="m 140.1456,89.007032 h -14.55999 l -2.50667,7.253329 h -8.15999 L 128.89227,58.92705 h 7.89333 l 14.39999,37.333311 h -8.47999 z m -2.13333,-6.239997 -5.22666,-14.933324 -5.06667,14.933324 z m 25.65328,-26.613317 v 15.573324 q 3.57333,-4.106664 8.74666,-4.106664 4.42666,0 6.93333,2.399998 2.56,2.399999 2.56,7.519996 v 18.719989 h -7.46667 V 78.767038 q 0,-2.293332 -1.22666,-3.413331 -1.22667,-1.12 -3.04,-1.12 -3.62667,0 -6.45333,4.319998 v 17.706656 h -7.46666 V 56.153718 Z m 45.81326,32.213314 2.93333,4.906664 q -4.58666,3.839998 -11.57332,3.839998 -5.97333,0 -9.81333,-3.786665 -3.84,-3.786664 -3.84,-10.933327 0,-6.666662 3.68,-10.773327 3.73333,-4.159997 9.75999,-4.159997 3.14667,0 5.65333,1.119999 2.50667,1.12 4.05333,2.986665 1.54667,1.866666 2.34667,4.159998 0.8,2.293332 0.8,4.85333 0,2.239999 -0.37333,4.106664 h -18.45333 q 1.06667,6.399996 7.30667,6.399996 4.21333,0 7.51999,-2.719998 z m -14.93332,-8.479995 h 12.10666 q -0.16,-3.093331 -1.70667,-4.85333 -1.54667,-1.759999 -4.16,-1.759999 -5.49333,0 -6.23999,6.613329 z m 27.52,-3.893331 -2.88,-4.639997 q 2.18667,-1.866666 5.17333,-2.879998 3.04,-1.013333 6.08,-1.013333 6.07999,0 8.95999,2.613332 2.88,2.613331 2.88,7.786662 v 11.14666 q 0,2.026665 1.49333,2.026665 h 1.33334 l -0.58667,4.853331 q -1.12,1.013332 -3.68,1.013332 -3.68,0 -4.85333,-3.039998 -3.2,3.253332 -8.21333,3.253332 -4.31999,0 -7.09333,-2.239999 -2.72,-2.239999 -2.72,-6.61333 0,-4.106664 3.04,-6.133329 3.04,-2.079999 7.94667,-2.079999 3.46666,0 5.86666,0.533333 v -2.133332 q 0,-2.719998 -1.33333,-3.786664 -1.33334,-1.12 -4,-1.12 -4.32,0 -7.41333,2.453332 z m 12.85332,12.586659 v -3.413331 q -2.13333,-0.586666 -5.11999,-0.586666 -4.85333,0 -4.85333,3.466664 0,1.866666 1.17333,2.719999 1.22667,0.799999 3.04,0.799999 4.05333,0 5.75999,-2.986665 z m 40.00003,7.679996 h -5.28 l -0.95999,-3.199998 h -0.10667 q -3.25333,4.053331 -8.21333,4.053331 -2.29333,0 -4.42666,-0.853333 -2.08,-0.906666 -3.94667,-2.613332 -1.81333,-1.706666 -2.93333,-4.639997 -1.06667,-2.986665 -1.06667,-6.77333 0,-3.679997 1.01334,-6.559996 1.06666,-2.933331 2.82666,-4.639997 1.76,-1.759999 3.89333,-2.666665 2.18667,-0.906666 4.53333,-0.906666 4.32,0 7.2,2.506665 V 56.153718 h 7.46666 z m -7.46666,-9.279995 V 76.847039 q -2.13333,-2.613332 -5.6,-2.613332 -2.72,0 -4.53333,2.026666 -1.76,2.026665 -1.76,5.919996 0,3.839998 1.86667,5.97333 1.86666,2.079999 4.48,2.079999 1.70666,0 3.14666,-0.853333 1.49333,-0.906666 2.4,-2.399999 z"
       id="path4" /></g><path
     fill="#333333"
     d="m 89.349183,89.125703 a 9.342678,9.342678 0 0 1 -13.20748,0.05735 c -3.66246,-3.631699 -3.64608,-9.505707 -0.0144,-13.168164 a 9.340353,9.340353 0 0 1 13.26484,13.153433 z m 5.55048,-18.942123 a 17.321427,17.321427 0 0 0 -24.46833,0.02253 l -18.62131,3.401431 c -0.28293,-0.362568 -0.61017,-0.687059 -0.89444,-0.968941 a 13.141196,13.141196 0 0 0 -6.00997,-3.376576 L 23.960338,20.736061 A 12.964305,12.964305 0 0 0 22.150932,4.5784214 13.031803,13.031803 0 0 0 3.7592049,4.6576114 13.03413,13.03413 0 0 0 3.8351149,23.049352 13.141196,13.141196 0 0 0 9.8450799,26.42592 L 30.790349,74.9519 a 12.964305,12.964305 0 0 0 1.809409,16.157639 c 4.75987,4.719897 12.3383,4.974307 17.38152,0.777588 l 20.43267,3.075461 a 17.347031,17.347031 0 0 0 24.54864,-0.103513 17.347031,17.347031 0 0 0 -0.10352,-24.548647 z m -4.03321,4.067371 a 11.637616,11.637616 0 0 1 0.0693,16.448052 11.637616,11.637616 0 0 1 -16.44807,0.06937 11.637616,11.637616 0 0 1 -0.0676,-16.446419 11.637616,11.637616 0 0 1 16.4464,-0.07099 z M 19.726676,6.9372704 c 2.603048,2.581189 3.388825,6.2645186 2.431476,9.5108256 l -2.045778,-4.69019 C 18.355578,8.0786704 14.013547,6.4346994 10.29431,8.0731594 6.5304639,9.6673684 4.7661749,13.968763 6.2420459,17.76933 l 1.71848,3.962474 A 8.4163235,8.4163235 0 0 1 6.3339659,20.443406 9.5498273,9.5498273 0 0 1 6.2769159,6.9116864 9.5498273,9.5498273 0 0 1 19.808625,6.8546264 Z M 48.492983,74.999084 a 9.5451723,9.5451723 0 0 1 0.0587,13.530053 9.5474998,9.5474998 0 0 1 -13.53007,0.0554 9.4381061,9.4381061 0 0 1 -2.39216,-9.550493 c 0.65494,1.537729 1.34954,3.11479 2.00777,4.652504 a 7.6854812,7.6854812 0 0 0 9.984,4.006625 7.5784152,7.5784152 0 0 0 3.92763,-9.980369 l -1.67881,-3.919856 c 0.60884,0.361159 1.139,0.801655 1.62821,1.286755 z"
     id="path1"
     style="fill:#1a9fff;fill-opacity:1;stroke-width:2.32752" /><path
     style="fill:#1a9fff;fill-opacity:1;stroke-width:1.5;stroke-linecap:round;stroke-linejoin:round;stroke-miterlimit:0"
     d="m 10,12.930634 v 24.138732 a 1.659297,1.659297 29.518122 0 0 2.512998,1.422835 L 32.487002,26.507799 a 1.7583806,1.7583806 90 0 0 0,-3.015598 L 12.512998,11.507799 A 1.659297,1.659297 150.48188 0 0 10,12.930634 Z"
     id="path2"
     transform="matrix(1.1894622,0,0,1.1894622,38.515323,4.3436694)" /><path
     style="fill:#1a9fff;fill-opacity:1;stroke-width:1.5;stroke-linecap:round;stroke-linejoin:round;stroke-miterlimit:0"
     d="m 10,12.930634 v 24.138732 a 1.659297,1.659297 29.518122 0 0 2.512998,1.422835 L 32.487002,26.507799 a 1.7583806,1.7583806 90 0 0 0,-3.015598 L 12.512998,11.507799 A 1.659297,1.659297 150.48188 0 0 10,12.930634 Z"
     id="path2-1"
     transform="matrix(1.1894622,0,0,1.1894622,60.752443,4.0624074)" /></svg>
